<svg width="63" height="33" viewBox="0 0 63 33" fill="none" xmlns="http://www.w3.org/2000/svg">
<path d="M16.4077 0H23.0232V20.3638H18.0688V7.60057L13.6973 20.3638H9.23842L4.95436 7.8587V20.3638H0V0H6.61552L11.5116 14.226L16.4077 0Z" fill="#004FC7"/>
<path d="M23.6893 15.7748H33.2192V20.3638H18.735V0H32.9277V4.58902H23.6893V8.03079H31.4706V12.333H23.6893V15.7748Z" fill="#004FC7"/>
<path d="M44.048 12.292H49.0023V32.6558H43.1737L36.1793 19.7779V32.6558H31.2249V12.292H37.0536L44.048 25.17V12.292Z" fill="#004FC7"/>
<path d="M60.6103 30.6768C59.0171 32.2256 56.8896 33 54.2279 33C51.5661 33 49.4387 32.2256 47.8455 30.6768C46.2523 29.128 45.4557 27.0725 45.4557 24.5103V12.292H50.4101V24.5103C50.4101 25.6958 50.7501 26.6423 51.4301 27.3498C52.1101 28.0572 53.0427 28.411 54.2279 28.411C55.413 28.411 56.3456 28.0572 57.0256 27.3498C57.7056 26.6423 58.0456 25.6958 58.0456 24.5103V12.292H63V24.5103C63 27.0725 62.2034 29.128 60.6103 30.6768Z" fill="#004FC7"/>
</svg>
